<?xml version="1.0" encoding="UTF-8" standalone="no"?> <svg width="64" height="64" viewBox="0 0 64 64" fill="none" xmlns="http://www.w3.org/2000/svg">
<path d="M53 8.99999V55C53 56.5913 52.3679 58.1174 51.2426 59.2426C50.1174 60.3679 48.5913 61 47 61H17C15.4087 61 13.8826 60.3679 12.7574 59.2426C11.6321 58.1174 11 56.5913 11 55V8.99999C11 7.40869 11.6321 5.88257 12.7574 4.75735C13.8826 3.63213 15.4087 2.99999 17 2.99999H47C47.6821 2.99815 48.3591 3.11663 49 3.34999C50.1703 3.76078 51.1839 4.52522 51.9005 5.53747C52.6171 6.54973 53.0014 7.75973 53 8.99999V8.99999Z" fill="#E6E7E8"/>
<path d="M49 3.34999V13L46 9.99999L43 13V2.99999H47C47.6821 2.99815 48.3591 3.11663 49 3.34999V3.34999Z" fill="#D8D7DA"/>
<path d="M47 3V11L44 8L41 11V3H47Z" fill="#FF5023"/>
<path d="M40.66 40.62L39.94 40.3L38 39.44L37 39V35.19C37.3616 34.988 37.6974 34.7428 38 34.46C39.0164 33.5613 39.6911 32.339 39.91 31H41C41.5304 31 42.0391 30.7893 42.4142 30.4142C42.7893 30.0392 43 29.5304 43 29C43 28.4696 42.7893 27.9609 42.4142 27.5858C42.0391 27.2107 41.5304 27 41 27H40V24C39.9976 22.4094 39.3647 20.8847 38.24 19.76C37.1153 18.6353 35.5906 18.0024 34 18C33.6646 17.9993 33.3299 18.0294 33 18.09C31.6021 18.3243 30.3325 19.0467 29.417 20.1288C28.5015 21.2109 27.9994 22.5826 28 24V27H27C26.4696 27 25.9609 27.2107 25.5858 27.5858C25.2107 27.9609 25 28.4696 25 29C25 29.5304 25.2107 30.0392 25.5858 30.4142C25.9609 30.7893 26.4696 31 27 31H28.09C28.2352 31.8701 28.5715 32.6972 29.0747 33.4217C29.5778 34.1462 30.2354 34.7501 31 35.19V39L28.06 40.3L27.34 40.62C25.7496 41.3288 24.3987 42.4834 23.451 43.9441C22.5032 45.4047 21.9992 47.1088 22 48.85V50H46V48.85C46.0008 47.1088 45.4968 45.4047 44.549 43.9441C43.6013 42.4834 42.2504 41.3288 40.66 40.62V40.62Z" fill="#D8D7DA"/>
<path d="M29 37L30.57 40.14L27 43L26.06 38.3L29 37Z" fill="#1E81CE"/>
<path d="M36 37.44L35 37L33.43 40.14L36 42.2L37 43L37.94 38.3L36 37.44Z" fill="#1E81CE"/>
<path d="M38.66 38.62L37.94 38.3L37 43L36 42.2L33.43 40.14L32 43L30.57 40.14L27 43L26.06 38.3L25.34 38.62C23.7496 39.3288 22.3987 40.4834 21.451 41.944C20.5032 43.4047 19.9992 45.1088 20 46.85V48H44V46.85C44.0008 45.1088 43.4968 43.4047 42.549 41.944C41.6013 40.4834 40.2504 39.3288 38.66 38.62V38.62Z" fill="#3D9AE2"/>
<path d="M36.24 17.76C35.6852 17.2002 35.0247 16.7563 34.2968 16.4541C33.5689 16.152 32.7881 15.9976 32 16C31.6646 15.9993 31.3299 16.0294 31 16.09C29.6021 16.3243 28.3325 17.0467 27.417 18.1288C26.5015 19.2109 25.9994 20.5826 26 22V24.63C26.6312 24.8995 27.3142 25.0259 28 25C31.33 25 32.67 23 36 23C36.6858 22.9741 37.3688 23.1005 38 23.37V22C38.0024 21.2119 37.848 20.4311 37.5459 19.7032C37.2437 18.9753 36.7998 18.3148 36.24 17.76V17.76Z" fill="#57565C"/>
<path d="M27 25V29H25C24.4696 29 23.9609 28.7893 23.5858 28.4142C23.2107 28.0391 23 27.5304 23 27C23 26.4696 23.2107 25.9609 23.5858 25.5858C23.9609 25.2107 24.4696 25 25 25H27Z" fill="#FFB655"/>
<path d="M41 27C40.9984 27.5299 40.7872 28.0377 40.4125 28.4125C40.0377 28.7872 39.5299 28.9984 39 29H37V25H39C39.5299 25.0016 40.0377 25.2128 40.4125 25.5875C40.7872 25.9623 40.9984 26.4701 41 27V27Z" fill="#FFB655"/>
<path d="M35 33V37L32 43L29 37V33H35Z" fill="#FFC477"/>
<path d="M35 33V35.19C34.0892 35.7205 33.054 35.9999 32 35.9999C30.946 35.9999 29.9108 35.7205 29 35.19V33H35Z" fill="#FFB655"/>
<path d="M38 23.37V28C38.0007 28.3354 37.9706 28.6701 37.91 29C37.6911 30.339 37.0164 31.5613 36 32.46C35.6974 32.7428 35.3616 32.988 35 33.19C34.0892 33.7205 33.054 33.9999 32 33.9999C30.946 33.9999 29.9108 33.7205 29 33.19C28.2354 32.7501 27.5778 32.1462 27.0747 31.4217C26.5715 30.6972 26.2352 29.8701 26.09 29C26.0294 28.6701 25.9993 28.3354 26 28V24.63C26.6312 24.8996 27.3142 25.0259 28 25C31.33 25 32.67 23 36 23C36.6858 22.9741 37.3688 23.1005 38 23.37Z" fill="#FFC477"/>
<path d="M47 2H17C15.1441 2.00212 13.3649 2.7403 12.0526 4.05259C10.7403 5.36489 10.0021 7.14413 10 9V55C10.0021 56.8559 10.7403 58.6351 12.0526 59.9474C13.3649 61.2597 15.1441 61.9979 17 62H47C48.8559 61.9979 50.6351 61.2597 51.9474 59.9474C53.2597 58.6351 53.9979 56.8559 54 55V9C53.9979 7.14413 53.2597 5.36489 51.9474 4.05259C50.6351 2.7403 48.8559 2.00212 47 2V2ZM42 4H46V8.59L44.71 7.29C44.5212 7.10265 44.266 6.99752 44 6.99752C43.734 6.99752 43.4788 7.10265 43.29 7.29L42 8.59V4ZM52 55C52 56.3261 51.4732 57.5979 50.5355 58.5355C49.5979 59.4732 48.3261 60 47 60H17C15.6739 60 14.4021 59.4732 13.4645 58.5355C12.5268 57.5979 12 56.3261 12 55V9C12 7.67392 12.5268 6.40215 13.4645 5.46447C14.4021 4.52678 15.6739 4 17 4H40V11C39.9992 11.1978 40.058 11.3913 40.1685 11.5554C40.2791 11.7194 40.4364 11.8464 40.62 11.92C40.8021 11.9966 41.0028 12.0175 41.1968 11.9801C41.3908 11.9428 41.5694 11.8488 41.71 11.71L44 9.41L46.29 11.71C46.4792 11.8965 46.7343 12.0008 47 12C47.1312 12.0035 47.2613 11.9761 47.38 11.92C47.5636 11.8464 47.7209 11.7194 47.8315 11.5554C47.942 11.3913 48.0008 11.1978 48 11V4.1C49.1279 4.33348 50.1411 4.94795 50.8695 5.84021C51.5979 6.73247 51.9971 7.84819 52 9V55Z" fill="black"/>
<path d="M39.06 37.71L36 36.35V33.74C37.2964 32.8317 38.2506 31.5148 38.71 30H39C39.7956 30 40.5587 29.6839 41.1213 29.1213C41.6839 28.5587 42 27.7956 42 27C42 26.2044 41.6839 25.4413 41.1213 24.8787C40.5587 24.3161 39.7956 24 39 24V22C39 20.1435 38.2625 18.363 36.9497 17.0503C35.637 15.7375 33.8565 15 32 15C30.1435 15 28.363 15.7375 27.0503 17.0503C25.7375 18.363 25 20.1435 25 22V24C24.2044 24 23.4413 24.3161 22.8787 24.8787C22.3161 25.4413 22 26.2044 22 27C22 27.7956 22.3161 28.5587 22.8787 29.1213C23.4413 29.6839 24.2044 30 25 30H25.29C25.7494 31.5148 26.7036 32.8317 28 33.74V36.35L24.93 37.71C23.1644 38.4981 21.6649 39.7806 20.6126 41.4025C19.5602 43.0245 19.0001 44.9166 19 46.85V48C19 48.2652 19.1054 48.5196 19.2929 48.7071C19.4804 48.8946 19.7348 49 20 49H44C44.2652 49 44.5196 48.8946 44.7071 48.7071C44.8946 48.5196 45 48.2652 45 48V46.85C45.0002 44.9152 44.4392 43.0218 43.3849 41.3995C42.3305 39.7772 40.8282 38.4955 39.06 37.71V37.71ZM39 26C39.2652 26 39.5196 26.1054 39.7071 26.2929C39.8946 26.4804 40 26.7348 40 27C40 27.2652 39.8946 27.5196 39.7071 27.7071C39.5196 27.8946 39.2652 28 39 28V26ZM25 28C24.7348 28 24.4804 27.8946 24.2929 27.7071C24.1054 27.5196 24 27.2652 24 27C24 26.7348 24.1054 26.4804 24.2929 26.2929C24.4804 26.1054 24.7348 26 25 26V28ZM36.8 38.89L36.34 41.19L34.69 39.87L35.47 38.3L36.8 38.89ZM27 22C27 20.6739 27.5268 19.4021 28.4645 18.4645C29.4021 17.5268 30.6739 17 32 17C33.3261 17 34.5979 17.5268 35.5355 18.4645C36.4732 19.4021 37 20.6739 37 22V22.07C36.6685 22.025 36.3345 22.0016 36 22C34.475 22.0325 32.976 22.4013 31.61 23.08C30.4881 23.6461 29.256 23.9601 28 24C27.6645 24.0035 27.3295 23.9733 27 23.91V22ZM27 28V25.93C27.3315 25.975 27.6655 25.9984 28 26C29.525 25.9675 31.024 25.5987 32.39 24.92C33.5119 24.3539 34.744 24.0399 36 24C36.3355 23.9965 36.6705 24.0267 37 24.09V28C37 29.3261 36.4732 30.5979 35.5355 31.5355C34.5979 32.4732 33.3261 33 32 33C30.6739 33 29.4021 32.4732 28.4645 31.5355C27.5268 30.5979 27 29.3261 27 28V28ZM34 34.71V36.76L32 40.76L30 36.76V34.71C31.3053 35.0966 32.6947 35.0966 34 34.71ZM28.53 38.3L29.31 39.86L27.66 41.19L27.2 38.89L28.53 38.3ZM43 47H21V46.85C21.0034 45.385 21.409 43.9491 22.1725 42.6989C22.9361 41.4486 24.0283 40.432 25.33 39.76L26.02 43.2C26.0544 43.3678 26.1313 43.524 26.2433 43.6536C26.3554 43.7832 26.4989 43.8818 26.66 43.94C26.7689 43.9801 26.884 44.0004 27 44C27.2256 43.9987 27.4441 43.9212 27.62 43.78L30.23 41.69L31.11 43.45C31.1939 43.6138 31.3214 43.7513 31.4784 43.8473C31.6355 43.9432 31.816 43.994 32 43.994C32.184 43.994 32.3645 43.9432 32.5216 43.8473C32.6786 43.7513 32.8061 43.6138 32.89 43.45L33.77 41.69L36.38 43.78C36.5559 43.9212 36.7744 43.9987 37 44C37.116 44.0004 37.2311 43.9801 37.34 43.94C37.5011 43.8818 37.6446 43.7832 37.7567 43.6536C37.8687 43.524 37.9456 43.3678 37.98 43.2L38.67 39.76C39.9717 40.432 41.0639 41.4486 41.8275 42.6989C42.591 43.9491 42.9966 45.385 43 46.85V47Z" fill="black"/>
<path d="M18 8H16V10H18V8Z" fill="black"/>
<path d="M28 8H20V10H28V8Z" fill="black"/>
<path d="M28 12H16V14H28V12Z" fill="black"/>
<path d="M48 18H44V20H48V18Z" fill="black"/>
<path d="M48 22H44V24H48V22Z" fill="black"/>
<path d="M20 18H16V20H20V18Z" fill="black"/>
<path d="M20 22H16V24H20V22Z" fill="black"/>
<path d="M44 52H34V54H44V52Z" fill="black"/>
</svg>
